<svg xmlns="http://www.w3.org/2000/svg" width="400" height="156.872">
  <g fill-rule="evenodd">
    <path fill="#ffffff" d="M183.5.847c-21.277 7.748-37.904 15.337-55.75 25.443C69.171 59.463 23.728 109.804 10.925 155.706l-.266.955-4.538.047-4.538.048 5.197.038 5.198.039.11-.375c3.452-11.684 13.483-29.326 25.139-44.208 34.42-43.947 95.829-82.689 157.44-99.326.87-.235 2.258-.616 3.083-.846 13.216-3.684 33.097-7.646 46.417-9.25 11.465-1.381 18.39-1.973 29.375-2.51 2.268-.111 4.125-.228 4.125-.26S256.985.006 231.708.014L185.75.027l-2.25.82m94.656 77.604c-2.781 2.226-5.862 2.67-10.22 1.47-5.882-1.619-9.1-1.778-13.288-.657-12.239 3.275-14.089 19.607-2.74 24.183 1.01.407 1.251.562 1.003.644-4.981 1.641-6.958 3.627-6.955 6.984.004 4.516 2.516 5.752 12.377 6.094 8.768.303 11.045 1.47 11.052 5.664.006 4.114-3.172 6.25-9.302 6.25-6.105 0-8.484-1.934-8.457-6.875l.01-1.708h-7.433l-.307 1.208c-2.199 8.681 4.153 14.024 16.687 14.038 12.274.013 19.101-6.052 17.418-15.474-1.241-6.943-5.814-9.43-17.353-9.437-3.778-.002-4.801-.259-5.054-1.27-.401-1.597 3.226-3.98 6.489-4.262 4.232-.367 7.184-1.507 9.733-3.758 3.952-3.49 4.913-9.971 2.154-14.527-.776-1.282-.806-1.24.699-1.006 2.657.412 5.989-.536 7.784-2.214l.37-.346-.949-1.351-1.964-2.796-1.015-1.446-.739.592m-84 .299c-4.187.507-11.256 3.316-13.224 5.253-.152.15.065.558 2.324 4.372 1.358 2.293 1.06 2.179 2.78 1.061 3.88-2.52 7.521-3.738 10.681-3.572 3.58.188 4.773 1.953 4.78 7.07l.003 2.185-3.375.099c-12.531.366-18.393 4.897-18.368 14.199.019 7.227 3.616 11.122 11.026 11.941 4.485.497 8.305-.68 11.205-3.45l1.272-1.215.575 1.112c.939 1.816 3.936 4.446 4.722 4.145.186-.072 4.111-4.985 4.25-5.32.031-.076-.39-.567-.935-1.093-2.364-2.278-2.333-2.017-2.236-18.87.057-10.06.054-10.108-.983-12.28-2.129-4.46-7.377-6.501-14.497-5.637m41.577.065c-2.29.656-4.35 2.149-6.256 4.536l-1.22 1.527-.188-1.481c-.215-1.689-.436-2.602-.935-3.869-.413-1.047-.183-1.042-3.717-.08-4.408 1.2-4.454 1.216-4.335 1.521 1.074 2.754 1.132 3.837 1.202 22.323l.064 17.041H228.661l.045-13.967.044-13.967.619-1.251c1.58-3.197 5.441-5.092 8.354-4.1l.749.256.172-.444c.094-.244.557-1.681 1.028-3.193a350.43 350.43 0 0 1 1.092-3.464c.357-1.081.321-1.165-.628-1.447-1.125-.334-3.124-.307-4.403.059m103.085-.062c-7.052.962-11.323 5.35-11.604 11.92-.281 6.59 3.138 10.446 10.703 12.073 7.936 1.707 9.533 2.833 9.391 6.622-.244 6.496-8.255 7.4-17.637 1.991l-1.189-.686-.761 1.622c-2.154 4.585-2.196 4.685-1.999 4.844.452.364 3.824 1.956 5.39 2.545 11.771 4.427 22.64.499 24.717-8.934 1.363-6.188-1.303-11.382-6.961-13.559-1.326-.51-2.033-.72-6.285-1.868-5.238-1.413-6.614-2.643-6.363-5.683.44-5.337 6.758-5.961 15.312-1.512.063.033.297-.339.519-.826l.745-1.635.939-2.063c.759-1.665.823-1.48-.777-2.251-4.97-2.397-9.51-3.232-14.14-2.6m-47.526.712-3.959.769.001 15.425c.001 16.537.031 17.23.856 19.458 2.671 7.216 14.332 8.594 20.94 2.474.576-.533 1.066-.941 1.09-.905.023.035.221.514.439 1.064.752 1.897 2.532 4.116 3.056 3.811.247-.144 5.315-3.732 5.504-3.897.074-.065-.063-.41-.306-.766-1.853-2.724-1.801-2.119-1.869-21.44-.033-9.235-.088-16.791-.121-16.791-.034 0-1.174.217-2.534.482-1.36.265-3.204.617-4.097.783l-1.625.302V109.601l-.474.747c-3.324 5.242-10.205 5.982-11.86 1.275-.618-1.758-.66-2.899-.663-18.081-.003-11.795-.046-14.872-.212-14.861-.114.008-1.989.361-4.166.784m-27.919 6.501c4.564 2.247 4.318 10.836-.367 12.804-2.665 1.12-6.54.437-8.239-1.453-2.484-2.763-1.968-8.913.917-10.912 1.846-1.28 5.553-1.491 7.689-.439m-62.1 20.154-.114 4.953-.634.755c-4.433 5.281-11.356 3.848-11.65-2.411-.275-5.877 2.56-8.127 10.36-8.224l2.152-.026-.114 4.953"/>
    <path fill="#5ba7dc" d="M0 78.441v78.441l1.275-.108c.701-.059 3.099-.107 5.329-.107h4.053l.268-.959c8.985-32.212 34.222-67.202 69.992-97.039 29.179-24.34 64.352-44.218 101.75-57.504 1.604-.57 2.948-1.065 2.986-1.101C185.691.029 143.935 0 92.861 0H0v78.441M276.333.167l-1.416.104 1.666.019C277.5.3 278.587.249 279 .175l.75-.133-1 .01a47.3 47.3 0 0 0-2.417.115m-3.956.286c.254.038.629.037.834-.002.205-.04-.003-.071-.461-.07-.458.001-.626.034-.373.072m-3.756.167c.296.037.821.038 1.167.002.346-.036.104-.067-.538-.067-.642-.001-.925.028-.629.065m-5.163.331c.207.04.544.04.75 0 .207-.04.038-.072-.375-.072-.412 0-.581.032-.375.072m-6.164.5c.207.04.507.039.666-.003.16-.042-.01-.074-.377-.073-.366.002-.497.036-.289.076m-3.5.334c.207.039.507.038.666-.004.16-.042-.01-.074-.377-.072-.366.002-.497.036-.289.076m-10.252 1.163c.16.042.423.042.583 0 .16-.042.029-.076-.292-.076s-.452.034-.291.076m-5.834 75.505c.252.038.665.038.917 0s.046-.07-.458-.07c-.505 0-.711.032-.459.07m79.372 16.214c0 8.846.02 12.464.045 8.041.025-4.423.025-11.66 0-16.083-.025-4.423-.045-.804-.045 8.042m-29.833.583c0 8.342.02 11.73.045 7.529.024-4.201.024-11.026 0-15.167-.025-4.141-.045-.704-.045 7.638M65.906 82.042l-.489.541.541-.489c.298-.269.542-.513.542-.542 0-.129-.138-.015-.594.49m182.255.75-.911.958.958-.911c.527-.501.959-.932.959-.958 0-.124-.16.02-1.006.911m-183.921.75-.49.541.542-.489c.505-.456.618-.594.489-.594-.029 0-.272.244-.541.542m116.512.455c-.099.159.179.836.343.836.046 0 .002-.151-.097-.336-.099-.186-.135-.411-.079-.5.055-.09.063-.164.017-.164-.045 0-.128.074-.184.164M62.333 85.25c-.405.412-.698.75-.652.75.045 0 .414-.338.819-.75.405-.413.699-.75.653-.75-.046 0-.415.337-.82.75m-2.672 2.542-.911.958.958-.911c.891-.846 1.035-1.006.911-1.006-.026 0-.457.432-.958.959m160.563 1.125c0 .733.03 1.012.065.62a8.344 8.344 0 0 0-.001-1.333c-.036-.341-.065-.021-.064.713m-10.497.416c0 .871.028 1.227.062.792.035-.435.035-1.148 0-1.583-.034-.436-.062-.08-.062.791m117.329 1.834c0 .687.029.968.065.625a7.247 7.247 0 0 0 0-1.25c-.036-.344-.065-.063-.065.625m-82.662 1.25c.001.916.029 1.27.062.786.034-.485.034-1.235 0-1.667-.035-.432-.062-.036-.062.881m8.83 0c0 .733.03 1.012.065.62a8.344 8.344 0 0 0-.001-1.333c-.036-.341-.065-.021-.064.713m22.336.416c0 .871.028 1.227.063.792.034-.435.034-1.148 0-1.583-.035-.436-.063-.08-.063.791m-9.01-.5c0 .504.031.711.069.459a3.608 3.608 0 0 0 0-.917c-.038-.252-.069-.046-.069.458M209.74 96.5c0 2.612.023 3.681.051 2.375.028-1.306.028-3.444 0-4.75s-.051-.237-.051 2.375m18.927 9.997v13.831l-4.209.047-4.208.048 4.292.038 4.291.039v-13.917c0-7.654-.037-13.916-.083-13.916-.046 0-.083 6.223-.083 13.83m-33.292-11.215c.16.041.423.041.583 0 .161-.042.029-.077-.291-.077-.321 0-.452.035-.292.077M50.41 97.042l-.827.875.875-.827c.482-.455.875-.849.875-.875 0-.125-.154.014-.923.827m214.33.5-.49.541.542-.489c.505-.456.618-.594.489-.594-.029 0-.272.244-.541.542m65.42 1.666c.69.736.84.869.84.743 0-.026-.356-.383-.792-.791l-.791-.743.743.791m-282.002.25-.575.625.625-.574c.582-.535.702-.676.575-.676-.028 0-.309.282-.625.625m211.303-.171c.3.038.75.037 1-.001.251-.038.006-.069-.544-.068-.55.001-.755.032-.456.069m93.789.713c.358.367.688.667.734.667.046 0-.209-.3-.567-.667-.358-.367-.689-.667-.735-.667-.045 0 .21.3.568.667m-106 .5c.358.367.688.667.734.667.046 0-.209-.3-.567-.667-.358-.367-.689-.667-.735-.667-.045 0 .21.3.568.667m-200.844.875-.489.542.541-.49c.505-.456.619-.594.49-.594-.029 0-.273.244-.542.542m-1.5 1.667-.489.541.541-.489c.505-.456.619-.594.49-.594-.029 0-.273.244-.542.542m156.324 2.541c.001 1.1.028 1.529.06.952.033-.576.033-1.476 0-2-.033-.523-.06-.052-.06 1.048m-157.49-1.208-.49.542.542-.49c.505-.456.618-.594.489-.594-.029 0-.272.244-.541.542m219.135.907c.16.041.423.041.583 0 .161-.042.029-.077-.291-.077-.321 0-.452.035-.292.077m82.625-.063c0 .029.244.272.542.541l.541.49-.489-.542c-.456-.505-.594-.618-.594-.489m-135.938 2.364c.001 1.009.028 1.4.061.869a16.72 16.72 0 0 0 0-1.833c-.034-.478-.061-.044-.061.964m146.65.084c0 .412.033.581.072.375.04-.207.04-.544 0-.75-.039-.207-.072-.038-.072.375m-60.5.5c0 .412.033.581.072.375.04-.207.04-.544 0-.75-.039-.207-.072-.038-.072.375m-49.84 2c0 .32.034.452.076.291.042-.16.042-.423 0-.583-.042-.16-.076-.029-.076.292m-36.167.833c0 .321.035.452.077.292a1.402 1.402 0 0 0 0-.584c-.042-.16-.077-.029-.077.292m48.416-.213c.296.037.821.037 1.167.001.346-.036.104-.066-.538-.067-.642 0-.925.029-.629.066m6.423.166c.253.038.628.037.833-.002.205-.04-.002-.071-.46-.07-.459.001-.626.034-.373.072m2.498.162c.16.042.423.042.583 0 .16-.042.029-.076-.292-.076s-.452.034-.291.076m39.7.927-.659.708.709-.659c.658-.613.785-.758.658-.758-.027 0-.345.319-.708.709m-106.909.375c-.405.412-.698.75-.652.75.045 0 .414-.338.819-.75.405-.413.699-.75.653-.75-.046 0-.415.337-.82.75m100.961 2.368c.207.039.507.038.666-.004.16-.042-.01-.074-.377-.072-.366.002-.497.036-.289.076m-89.627.1c0 .029.243.273.541.542l.542.49-.49-.542c-.456-.505-.593-.618-.593-.49m129.291.069c.298.037.786.037 1.084 0 .298-.037.054-.067-.542-.067-.596 0-.84.03-.542.067m-138.13 2.671-.911.958.958-.911c.89-.846 1.035-1.005.911-1.005-.026 0-.457.431-.958.958m56.63-.336c.39.035 1.027.035 1.417 0 .39-.035.071-.064-.708-.064-.78 0-1.098.029-.709.064m-76.208.878c.358.366.688.666.734.666.046 0-.209-.3-.567-.666-.358-.367-.689-.667-.735-.667-.045 0 .21.3.568.667m65.076 2.291c2.735.036 3.777.104 3.872.254.091.143.131.117.133-.087.002-.271-.278-.289-3.873-.253l-3.875.038 3.743.048m30.395 2.125c.001.642.031.884.067.538a6.211 6.211 0 0 0-.001-1.166c-.037-.296-.066-.013-.066.628m61.492-.96a10.87 10.87 0 0 0 1.5-.001c.387-.035.029-.063-.796-.063-.825.001-1.142.029-.704.064m-70.341 1.21c0 .321.034.452.076.292.042-.16.042-.423 0-.583-.042-.161-.076-.029-.076.291m-16.205 4.25c.311.321.603.584.648.584.046 0-.171-.263-.482-.584-.311-.32-.603-.583-.648-.583-.046 0 .171.263.482.583m21.573 4.292-.49.542.542-.49c.505-.456.618-.594.489-.594-.029 0-.272.244-.541.542m-15.115 4.582c.573.032 1.51.032 2.083 0 .573-.033.105-.059-1.041-.059s-1.615.026-1.042.059M12 156.708c0 .069 81.656.107 181.458.084 99.802-.023 151.871-.06 115.709-.083C131.822 156.596 12 156.596 12 156.708"/>
    <path fill="#005dac" d="M279 .175c-.413.074-1.535.139-2.495.146-6.076.043-21.388 1.212-29.755 2.272-1.1.139-2.562.32-3.25.402-1.455.174-5.633.764-7.083 1l-4.667.756c-2.017.327-4.004.663-4.417.747-.412.085-1.425.276-2.25.426-2.811.512-8.245 1.61-11.166 2.258C168.483 18.253 122.79 38.569 88.583 63.91l-3.166 2.345c-32.462 24.037-58.18 54.114-70.038 81.912-1.694 3.971-3.319 8.282-3.176 8.425.039.039 82.734.09 183.767.114l183.697.044V0l-49.959.021C302.231.032 279.412.102 279 .175m110.083.142c-1.239.438-2.25.912-2.25 1.056 0 .07-.096.127-.214.127-.56 0-2.373 2.295-2.963 3.75-.482 1.186-.588 4.362-.181 5.417 1.093 2.837 2.722 4.419 5.692 5.525.763.285 4.033.278 4.916-.01 8.017-2.615 7.916-13.804-.144-15.95-1.221-.325-3.822-.279-4.856.085m4.977 2.082c4.484 1.983 4.827 9.459.523 11.406-.183.083-.551.254-.817.381-.622.297-3.543.312-4.158.022l-.885-.416c-3.111-1.46-4.219-6.511-2.056-9.372 1.783-2.359 4.777-3.178 7.393-2.021m-3.977 1.508c-.091.037-.523.115-.958.173l-.792.107V12.5h2.167V9.333h.732c.954 0 1.375.369 1.619 1.417.417 1.791.377 1.75 1.687 1.75 1.043 0 1.152-.03 1.045-.292-.065-.16-.251-.824-.414-1.474-.307-1.23-.687-1.967-1.149-2.227-.239-.134-.232-.166.063-.279 1.758-.674 1.626-3.114-.212-3.936-.729-.327-3.285-.586-3.788-.385m2.375 1.925c1.174.715.24 2.001-1.453 2.001h-.505V6.778c0-1.403.675-1.729 1.958-.946m-111.64 74.646c2.284 3.279 2.189 2.987 1.21 3.734-2.169 1.655-6.427 2.515-8.415 1.701-.233-.096-.172.085.261.773 5.195 8.254-.772 17.889-11.541 18.634-2.925.202-6.666 2.35-6.666 3.827 0 1.399.264 1.465 6.666 1.674 7.807.254 10.051.897 12.854 3.686 4.629 4.604 4.021 13.336-1.228 17.642-4.087 3.353-11.457 4.637-19.126 3.334-7.4-1.258-11.343-5.002-11.329-10.757.004-1.533.094-2.196.51-3.768l.166-.625h7.57v1.959c0 4.836 2.415 6.779 8.417 6.773 6.627-.007 10.369-3.341 8.92-7.948-.894-2.84-2.816-3.526-10.837-3.867-8.642-.367-11.272-1.289-12.154-4.26-1.158-3.897 1.193-7.189 6.3-8.823l.647-.207-.834-.294c-5.186-1.826-8.194-6.464-7.821-12.06.558-8.375 6.999-13.463 16.529-13.059 2.25.096 3.291.284 6.678 1.207 4.74 1.29 7.6.932 10.405-1.305.412-.329.801-.602.863-.607.062-.005.942 1.182 1.955 2.636m-40.651-1.817c1.094.325 1.094.177-.012 3.685a358.606 358.606 0 0 0-1.282 4.125c-.227.774-.304.874-.608.785-3.623-1.067-7.115.492-8.843 3.946l-.589 1.176V120.5h-8.471l-.077-16.792c-.081-17.959-.099-18.364-.955-21.502-.464-1.7-.515-1.607 1.128-2.034.802-.208 2.509-.669 3.792-1.025 1.283-.355 2.38-.646 2.438-.647.385-.001 1.475 3.843 1.477 5.208.002.956.149.987.765.167 3.21-4.271 7.58-6.299 11.237-5.214m-38.417.33c4.249 1.122 7.059 3.961 7.85 7.93.232 1.167.252 2.653.16 12.162-.135 13.974-.088 14.319 2.251 16.483l1.004.93-2.201 2.843c-1.623 2.096-2.27 2.817-2.466 2.744-1.536-.574-3.569-2.432-4.494-4.107l-.627-1.135-.655.676c-2.808 2.898-5.464 3.905-10.239 3.883-8.615-.041-12.906-4.369-12.624-12.735.209-6.236 3.176-10.125 9.283-12.171 2.722-.912 4.462-1.168 8.841-1.302l3.584-.109.05-1.5c.093-2.768-.341-5.009-1.182-6.106-2.134-2.783-8.317-1.865-14.393 2.137-.774.51-1.433.899-1.465.865-.032-.034-.654-1.075-1.383-2.312a239.087 239.087 0 0 0-1.851-3.102c-.289-.469-.526-.898-.526-.953 0-.428 5.94-3.486 8.317-4.282 4.038-1.353 9.469-1.71 12.766-.839m144.778-.008a29.258 29.258 0 0 1 6.255 2.203c1.926.947 1.835.665.883 2.731a247.37 247.37 0 0 0-1.668 3.688l-.303.689-1.894-.949c-4.98-2.495-9.244-2.807-11.908-.871-2.003 1.456-2.191 5.352-.327 6.774 1.153.88 2.304 1.287 7.589 2.687 7.844 2.077 11.025 5.453 11.052 11.732.044 9.935-9.494 15.973-21.04 13.318-3.122-.718-9.667-3.406-9.667-3.971 0-.092.38-.976.844-1.965.464-.99 1.114-2.38 1.444-3.091.697-1.503.576-1.458 1.884-.692 9.503 5.57 18.133 4.332 17.614-2.528-.234-3.095-1.886-4.264-7.869-5.571-3.252-.71-4.196-.957-5.25-1.372-10.348-4.079-9.264-18.97 1.635-22.452.882-.281 1.408-.398 3.365-.747 1.063-.189 5.965.069 7.361.387m-50.856 13.809c.007 17.463.097 18.6 1.618 20.376 2.518 2.942 8.915 1.089 11.002-3.186l.375-.769V94.69c0-7.988.018-14.524.041-14.524.023-.001 1.767-.338 3.875-.75s3.999-.749 4.202-.749h.37l.059 17.041c.052 14.929.092 17.145.321 17.875.53 1.682.966 2.655 1.476 3.289.288.358.496.673.464.701-.503.434-5.627 3.998-5.822 4.049-.592.155-2.362-2.058-3.08-3.852l-.446-1.114-.924.924c-6.416 6.416-18.66 4.784-21.231-2.83-.722-2.138-.795-3.925-.8-19.697l-.005-14.863.875-.172c5.208-1.026 6.776-1.318 7.166-1.333l.459-.018.005 14.125m-37.627-7.294c-3.249.694-4.619 2.72-4.62 6.835-.002 4.973 2.122 7.036 6.991 6.789 4.062-.205 6.084-2.453 6.084-6.763 0-5.168-3.414-7.939-8.455-6.861m-61.462 15.861c-5.408.605-7.761 2.905-7.747 7.571.019 6.353 6.742 8.189 11.348 3.099l.934-1.032.089-4.79c.065-3.486.037-4.824-.101-4.913-.249-.16-2.837-.123-4.523.065"/>
  </g>
</svg>