<svg width="41" height="60" viewBox="0 0 41 60" fill="none" xmlns="http://www.w3.org/2000/svg">
<g clip-path="url(#clip0_1_12)">
<path d="M9.50756 30.6875V43.5941L2.08606 47.8338L2.12904 26.3036L9.50756 30.6875Z" fill="#96002E"/>
<path d="M31.7434 30.7884V43.6518L39.2079 47.9348L39.1219 26.4045L31.7434 30.7884Z" fill="#96002E"/>
<path d="M9.50754 43.5652L20.8977 50.2277L20.6684 58.6638L2.0144 47.8771L9.50754 43.5652Z" fill="#E21735"/>
<path d="M31.7864 43.6229L20.6685 50.1123V58.7071L39.2222 47.8771L31.7864 43.6229Z" fill="#E21735"/>
<path d="M31.8436 18.848L20.4535 12.2L20.4678 3.64847L39.2651 14.5362L31.8436 18.848Z" fill="#0066A8"/>
<path d="M9.40719 18.848L20.4821 12.2V3.64847L2.07166 14.5794L9.40719 18.848Z" fill="#0066A8"/>
<path d="M39.1935 23.1598L28.0899 29.6203L20.6398 25.3662L39.2652 14.5073L39.1935 23.1598Z" fill="#019DDA"/>
<path d="M2.11473 23.1598L13.2183 29.6203L20.6685 25.3662L2.04309 14.5073L2.11473 23.1598Z" fill="#019DDA"/>
<path d="M28.0757 42.5846L28.09 29.505L20.6971 25.2797V46.9686L28.0757 42.5846Z" fill="#019DDA"/>
</g>
<defs>
<clipPath id="clip0_1_12">
<rect width="41" height="60" fill="white"/>
</clipPath>
</defs>
</svg>
